<?xml version="1.0" standalone="no"?>
<!DOCTYPE svg PUBLIC "-//W3C//DTD SVG 20010904//EN"
 "http://www.w3.org/TR/2001/REC-SVG-20010904/DTD/svg10.dtd">
<svg version="1.0" xmlns="http://www.w3.org/2000/svg"
 width="1401.000000pt" height="1401.000000pt" viewBox="0 0 1401.000000 1401.000000"
 preserveAspectRatio="xMidYMid meet">
<metadata>
Created by potrace 1.11, written by Peter Selinger 2001-2013
</metadata>
<g transform="translate(0.000000,1401.000000) scale(0.100000,-0.100000)"
fill="#000000" stroke="none">
<path d="M11270 12911 c-102 -49 -266 -127 -365 -174 -810 -384 -929 -447
-1092 -587 -248 -212 -436 -532 -516 -882 -20 -90 -21 -122 -26 -972 l-6 -880
-930 -438 c-511 -242 -1351 -637 -1865 -880 -1035 -487 -1038 -489 -1156 -567
-348 -234 -585 -579 -692 -1011 l-26 -105 -6 -815 -6 -815 -27 -90 c-40 -133
-115 -277 -194 -375 -110 -135 -204 -204 -455 -331 -397 -202 -679 -412 -921
-687 -332 -378 -546 -784 -663 -1257 -59 -239 -74 -375 -74 -666 0 -306 4
-325 89 -410 66 -66 124 -89 221 -89 84 0 103 7 242 87 62 35 190 102 283 148
728 354 1414 497 1923 400 206 -39 341 -93 552 -219 535 -320 1039 -496 1565
-547 154 -15 525 -6 665 16 266 41 479 115 795 275 886 449 1609 1107 2058
1871 457 779 750 1974 812 3314 8 170 13 6193 6 6522 l-6 252 -185 -88z m-430
-4445 c0 -1209 -4 -2063 -10 -2187 -54 -1065 -230 -1953 -527 -2648 -187 -438
-430 -790 -802 -1162 -358 -357 -771 -654 -1226 -882 -365 -182 -523 -222
-885 -222 -235 1 -337 13 -558 66 -318 77 -612 203 -962 412 -294 175 -541
262 -880 308 -139 19 -523 17 -685 -5 -402 -52 -816 -168 -1223 -342 -96 -41
-177 -73 -179 -70 -7 7 14 106 49 231 157 565 533 1055 1042 1359 96 58 278
144 2371 1131 2372 1118 2660 1256 2736 1301 396 240 659 610 771 1086 l22 93
3 1538 3 1538 28 16 c52 30 887 422 900 422 9 1 12 -402 12 -1983z m-1570
-595 l0 -849 -26 -98 c-44 -173 -125 -320 -247 -451 -120 -129 -216 -187 -595
-363 -51 -24 -94 -41 -96 -39 -2 2 3 36 12 74 13 59 16 201 21 875 l7 805 27
88 c73 234 216 431 412 566 61 42 451 238 478 240 4 1 7 -381 7 -848z m-1538
62 c-12 -56 -16 -213 -22 -878 -6 -807 -6 -810 -29 -885 -32 -103 -102 -249
-157 -327 -62 -86 -166 -188 -260 -253 -67 -46 -511 -266 -520 -257 -2 1 3 39
10 82 10 60 16 280 21 859 6 775 7 780 30 872 27 107 84 233 145 325 57 84
198 223 285 281 64 42 475 245 501 247 7 1 6 -20 -4 -66z m-1566 -781 c-14
-84 -16 -214 -16 -835 0 -611 -3 -748 -15 -806 -30 -141 -80 -264 -157 -381
-57 -87 -196 -225 -286 -284 -62 -41 -502 -258 -510 -251 -1 1 3 24 10 51 8
34 13 301 18 864 l6 815 27 93 c72 248 223 459 425 593 87 57 505 260 510 247
2 -4 -4 -52 -12 -106z"/>
</g>
</svg>
