<svg id="step_3" data-name="step 3" xmlns="http://www.w3.org/2000/svg" viewBox="0 0 200 200"><defs><style>.cls-1{fill:#0894c4;}.cls-2{fill:#b7068d;}.cls-3{fill:#ff00c9;}</style></defs><title>b</title><g id="Candidates"><g id="candidate_copy_4" data-name="candidate copy 4"><path class="cls-1" d="M38.45,90.19A63.74,63.74,0,1,0,156,56a70.09,70.09,0,1,1-108.8,1.88A63.4,63.4,0,0,0,38.45,90.19Z"/><path class="cls-2" d="M111.73,35.94a53.85,53.85,0,1,0,28.84,99.32A59.21,59.21,0,1,1,139,43.35,53.58,53.58,0,0,0,111.73,35.94Z"/><path class="cls-3" d="M137.28,126.82a44.26,44.26,0,1,0-74.49-41,48.67,48.67,0,1,1,54.35,52.51A44.09,44.09,0,0,0,137.28,126.82Z"/></g></g></svg>