<svg id="step_3" data-name="step 3" xmlns="http://www.w3.org/2000/svg" viewBox="0 0 200 200"><defs><style>.cls-1{fill:#9acb54;}.cls-2{fill:#1c7d3f;}.cls-3{fill:#75b1cb;}</style></defs><title>a</title><g id="Candidates"><g id="candidate_copy" data-name="candidate copy"><path class="cls-1" d="M42,127a2.48,2.48,0,0,0,2.58,1.4A576,576,0,0,1,152.39,125c4.51.28,8.9-2.24,10.14-6.59a5.79,5.79,0,0,0-5.91-7.22A584.64,584.64,0,0,0,43.1,125,1.49,1.49,0,0,0,42,127"/><path class="cls-2" d="M56.72,106.67a1.7,1.7,0,0,0-1.23,1.94,1.55,1.55,0,0,0,1.74,1.33c38.87-6.23,62.69-6.35,100.18-4.78,4.1.17,7.69-2.89,7.47-6.82s-3.93-6.89-8.11-6.68c-38.2,1.89-61.91,5.46-100,15"/><path class="cls-1" d="M81.1,155.95a2.71,2.71,0,0,0-.6,5.23,64.13,64.13,0,0,0,53.79-4.73c2.49-1.43,1.19-5.17-1.68-5.06q-25.92,1.06-51.51,4.56"/><path class="cls-2" d="M153.48,137.56a4.47,4.47,0,0,0-3.89-7c-30.72.93-54.21,3.38-84.87,9.78a1.51,1.51,0,0,0-.89,2.47,5.16,5.16,0,0,0,4.31,1.59c26.83-2.8,46.24-2.29,72-.88,5.18.28,10.38-1.73,13.34-6"/><path class="cls-3" d="M158.93,77.56A9.07,9.07,0,1,1,149.37,69a9.07,9.07,0,0,1,9.56,8.54"/><path class="cls-3" d="M131,57.93a9.27,9.27,0,1,1-9.78-8.74A9.28,9.28,0,0,1,131,57.93"/><path class="cls-3" d="M81.55,53.29a9,9,0,1,1-9.46-8.45,9,9,0,0,1,9.46,8.45"/><path class="cls-3" d="M133.73,76.35a6.57,6.57,0,1,1-6.93-6.19,6.57,6.57,0,0,1,6.93,6.19"/><path class="cls-3" d="M149.5,61.77a6.58,6.58,0,1,1-6.93-6.19,6.57,6.57,0,0,1,6.93,6.19"/><path class="cls-3" d="M51.77,91.84a6.29,6.29,0,1,1-6.64-5.93,6.29,6.29,0,0,1,6.64,5.93"/><path class="cls-3" d="M65.09,65.41a1.71,1.71,0,1,1-1.8-1.61,1.71,1.71,0,0,1,1.8,1.61"/><path class="cls-3" d="M139.27,83.6a2.91,2.91,0,1,1-3.07-2.74,2.91,2.91,0,0,1,3.07,2.74"/><path class="cls-3" d="M113.18,39.79a2.08,2.08,0,1,1-2.19-2,2.07,2.07,0,0,1,2.19,2"/><path class="cls-3" d="M85.51,43.16a3.14,3.14,0,1,1-3.32-3,3.13,3.13,0,0,1,3.32,3"/><path class="cls-3" d="M131.17,46a2.36,2.36,0,1,1-2.5-2.22,2.36,2.36,0,0,1,2.5,2.22"/><path class="cls-3" d="M93.94,40a2.36,2.36,0,1,1-2.49-2.22A2.36,2.36,0,0,1,93.94,40"/><path class="cls-3" d="M57,69.84a4.74,4.74,0,1,1-5-4.46,4.74,4.74,0,0,1,5,4.46"/><path class="cls-3" d="M66.86,93.13a5,5,0,1,1-5.28-4.72,5,5,0,0,1,5.28,4.72"/><path class="cls-3" d="M43.81,102.09a2.35,2.35,0,1,1-2.48-2.21,2.35,2.35,0,0,1,2.48,2.21"/><path class="cls-3" d="M63.12,81.41a5.31,5.31,0,1,1-5.6-5,5.31,5.31,0,0,1,5.6,5"/><path class="cls-3" d="M73.6,72.87a6,6,0,1,1-6.35-5.67,6,6,0,0,1,6.35,5.67"/><path class="cls-3" d="M110.17,53.28a4.1,4.1,0,1,1-4.32-3.86,4.09,4.09,0,0,1,4.32,3.86"/><path class="cls-3" d="M89.19,68a5.69,5.69,0,1,1-6-5.35,5.69,5.69,0,0,1,6,5.35"/><path class="cls-3" d="M136,66.79a2.65,2.65,0,1,1-2.8-2.5,2.65,2.65,0,0,1,2.8,2.5"/><path class="cls-3" d="M86.52,85.42a8.36,8.36,0,1,1-8.82-7.87,8.36,8.36,0,0,1,8.82,7.87"/><path class="cls-3" d="M107.59,65.81a7.77,7.77,0,1,1-8.19-7.32,7.77,7.77,0,0,1,8.19,7.32"/><path class="cls-3" d="M139.88,51.91a4.1,4.1,0,1,1-4.32-3.86,4.1,4.1,0,0,1,4.32,3.86"/><path class="cls-3" d="M106.79,43.5a5.65,5.65,0,1,1-4.73-6.44,5.65,5.65,0,0,1,4.73,6.44"/><path class="cls-3" d="M93.13,75.25a2.16,2.16,0,1,1-2.28-2,2.16,2.16,0,0,1,2.28,2"/><path class="cls-3" d="M105.39,80.72A3.89,3.89,0,1,1,101.28,77a3.9,3.9,0,0,1,4.11,3.67"/><path class="cls-3" d="M118.81,82.56a4.75,4.75,0,1,1-5-4.48,4.75,4.75,0,0,1,5,4.48"/><path class="cls-3" d="M96.87,87.35a4.1,4.1,0,1,1-4.32-3.86,4.1,4.1,0,0,1,4.32,3.86"/><path class="cls-3" d="M49.65,79.66a4.1,4.1,0,1,1-4.32-3.86,4.1,4.1,0,0,1,4.32,3.86"/><path class="cls-3" d="M61.91,60.1a4.09,4.09,0,1,1-4.32-3.86,4.09,4.09,0,0,1,4.32,3.86"/><path class="cls-3" d="M122.51,43.1a4.1,4.1,0,1,1-4.32-3.86,4.1,4.1,0,0,1,4.32,3.86"/><path class="cls-3" d="M118.06,71.48a4.1,4.1,0,1,1-4.32-3.86,4.1,4.1,0,0,1,4.32,3.86"/><path class="cls-3" d="M96.35,52.54a6.17,6.17,0,1,1-6.51-5.81,6.17,6.17,0,0,1,6.51,5.81"/></g></g></svg>