<svg xmlns="http://www.w3.org/2000/svg" xmlns:xlink="http://www.w3.org/1999/xlink" viewBox="0 0 200 200"><defs><style>.cls-1{fill:#424242;}.cls-2{fill:url(#New_Gradient_Swatch_61);}.cls-3{fill:#f90;}.cls-4{fill:url(#New_Gradient_Swatch_8);}.cls-5{fill:url(#New_Gradient_Swatch_8-2);}.cls-6{fill:url(#New_Gradient_Swatch_16);}.cls-7{fill:url(#New_Gradient_Swatch_16-2);}.cls-8{fill:url(#New_Gradient_Swatch_16-3);}.cls-9{fill:url(#New_Gradient_Swatch_8-3);}.cls-10{fill:url(#New_Gradient_Swatch_16-4);}.cls-11{fill:url(#New_Gradient_Swatch_8-4);}.cls-12{fill:url(#New_Gradient_Swatch_16-5);}.cls-13{fill:url(#New_Gradient_Swatch_8-5);}.cls-14{fill:url(#New_Gradient_Swatch_8-6);}.cls-15{fill:url(#New_Gradient_Swatch_16-6);}.cls-16{fill:url(#New_Gradient_Swatch_8-7);}.cls-17{fill:url(#New_Gradient_Swatch_16-7);}.cls-18{fill:url(#New_Gradient_Swatch_61-2);}.cls-19{fill:url(#New_Gradient_Swatch_61-3);}.cls-20{fill:url(#New_Gradient_Swatch_61-4);}.cls-21{fill:url(#New_Gradient_Swatch_61-5);}.cls-22{fill:url(#New_Gradient_Swatch_8-8);}.cls-23{fill:url(#New_Gradient_Swatch_61-6);}.cls-24{fill:url(#New_Gradient_Swatch_8-9);}.cls-25{fill:url(#New_Gradient_Swatch_61-7);}.cls-26{fill:url(#New_Gradient_Swatch_16-8);}.cls-27{fill:url(#New_Gradient_Swatch_61-8);}.cls-28{fill:url(#New_Gradient_Swatch_16-9);}.cls-29{fill:url(#New_Gradient_Swatch_61-9);}.cls-30{fill:url(#New_Gradient_Swatch_8-10);}.cls-31{fill:url(#New_Gradient_Swatch_16-10);}.cls-32{fill:#ffce00;}.cls-33{fill:#3a3a3a;}.cls-34{fill:#1b7a00;}.cls-35{fill:#7fd800;}</style><linearGradient id="New_Gradient_Swatch_61" x1="2951.87" y1="-5619.75" x2="2929.38" y2="-5616" gradientTransform="translate(5605.32 3332.99) rotate(-87.02)" gradientUnits="userSpaceOnUse"><stop offset="0" stop-color="#f0584b"/><stop offset="1" stop-color="#c73f3d"/></linearGradient><linearGradient id="New_Gradient_Swatch_8" x1="2896.47" y1="-5613.42" x2="2967.08" y2="-5613.42" gradientTransform="translate(5605.32 3332.99) rotate(-87.02)" gradientUnits="userSpaceOnUse"><stop offset="0" stop-color="#fcba39"/><stop offset="1" stop-color="#d96d2d"/></linearGradient><linearGradient id="New_Gradient_Swatch_8-2" x1="2896.36" y1="-5611.84" x2="2967.08" y2="-5611.84" xlink:href="#New_Gradient_Swatch_8"/><radialGradient id="New_Gradient_Swatch_16" cx="2934.86" cy="-5667.15" r="50.15" gradientTransform="translate(5605.32 3332.99) rotate(-87.02)" gradientUnits="userSpaceOnUse"><stop offset="0" stop-color="#f9b314"/><stop offset="1" stop-color="#ec5222"/></radialGradient><radialGradient id="New_Gradient_Swatch_16-2" cx="2934.87" cy="-5667.18" r="50.17" xlink:href="#New_Gradient_Swatch_16"/><radialGradient id="New_Gradient_Swatch_16-3" cx="2934.87" cy="-5667.17" r="50.16" xlink:href="#New_Gradient_Swatch_16"/><linearGradient id="New_Gradient_Swatch_8-3" x1="2895.89" y1="-5612.1" x2="2967.35" y2="-5612.1" xlink:href="#New_Gradient_Swatch_8"/><radialGradient id="New_Gradient_Swatch_16-4" cx="2934.88" cy="-5667.11" r="50.1" xlink:href="#New_Gradient_Swatch_16"/><linearGradient id="New_Gradient_Swatch_8-4" x1="2895.83" y1="-5618.08" x2="2967.39" y2="-5618.08" xlink:href="#New_Gradient_Swatch_8"/><radialGradient id="New_Gradient_Swatch_16-5" cx="2934.87" cy="-5667.27" r="50.25" xlink:href="#New_Gradient_Swatch_16"/><linearGradient id="New_Gradient_Swatch_8-5" x1="2895.84" y1="-5638.57" x2="2967.38" y2="-5638.57" xlink:href="#New_Gradient_Swatch_8"/><linearGradient id="New_Gradient_Swatch_8-6" x1="2895.98" y1="-5618.64" x2="2966.96" y2="-5618.64" xlink:href="#New_Gradient_Swatch_8"/><radialGradient id="New_Gradient_Swatch_16-6" cx="2934.7" cy="-5666.76" r="49.75" xlink:href="#New_Gradient_Swatch_16"/><linearGradient id="New_Gradient_Swatch_8-7" x1="2895.88" y1="-5614.26" x2="2967.36" y2="-5614.26" xlink:href="#New_Gradient_Swatch_8"/><radialGradient id="New_Gradient_Swatch_16-7" cx="2934.88" cy="-5667.22" r="50.2" xlink:href="#New_Gradient_Swatch_16"/><linearGradient id="New_Gradient_Swatch_61-2" x1="2952.81" y1="-5613.71" x2="2930.44" y2="-5609.98" xlink:href="#New_Gradient_Swatch_61"/><linearGradient id="New_Gradient_Swatch_61-3" x1="2952.71" y1="-5614.69" x2="2930.22" y2="-5610.94" xlink:href="#New_Gradient_Swatch_61"/><linearGradient id="New_Gradient_Swatch_61-4" x1="2950.84" y1="-5625.42" x2="2928.4" y2="-5621.68" xlink:href="#New_Gradient_Swatch_61"/><linearGradient id="New_Gradient_Swatch_61-5" x1="2951.49" y1="-5624.61" x2="2928.74" y2="-5620.82" xlink:href="#New_Gradient_Swatch_61"/><linearGradient id="New_Gradient_Swatch_8-8" x1="2895.82" y1="-5613.32" x2="2967.38" y2="-5613.32" xlink:href="#New_Gradient_Swatch_8"/><linearGradient id="New_Gradient_Swatch_61-6" x1="2952.69" y1="-5614.75" x2="2930.23" y2="-5611.01" xlink:href="#New_Gradient_Swatch_61"/><linearGradient id="New_Gradient_Swatch_8-9" x1="2893.57" y1="-5611.81" x2="2968.69" y2="-5611.81" xlink:href="#New_Gradient_Swatch_8"/><linearGradient id="New_Gradient_Swatch_61-7" x1="2953.47" y1="-5613.87" x2="2929.82" y2="-5609.93" xlink:href="#New_Gradient_Swatch_61"/><radialGradient id="New_Gradient_Swatch_16-8" cx="2934.87" cy="-5667.2" r="50.19" xlink:href="#New_Gradient_Swatch_16"/><linearGradient id="New_Gradient_Swatch_61-8" x1="2952.75" y1="-5614.41" x2="2930.27" y2="-5610.66" xlink:href="#New_Gradient_Swatch_61"/><radialGradient id="New_Gradient_Swatch_16-9" cx="2934.9" cy="-5668.03" r="50.93" xlink:href="#New_Gradient_Swatch_16"/><linearGradient id="New_Gradient_Swatch_61-9" x1="2952.79" y1="-5613.7" x2="2930.45" y2="-5609.98" xlink:href="#New_Gradient_Swatch_61"/><linearGradient id="New_Gradient_Swatch_8-10" x1="2895.83" y1="-5615.18" x2="2967.37" y2="-5615.18" xlink:href="#New_Gradient_Swatch_8"/><radialGradient id="New_Gradient_Swatch_16-10" cx="2934.87" cy="-5667.2" r="50.19" xlink:href="#New_Gradient_Swatch_16"/></defs><title>e</title><g id="Layer_25" data-name="Layer 25"><path class="cls-1" d="M140.27,80c-.39-.68-.8-1.35-1.24-2-16.24-25-38.93-44.15-50.45-41.59-3.3.68-6.72,3.34-10,7.5,6.69.23,13.38,3,19.54,7.75a55,55,0,0,1,12.23,8.87c5.43,4.32,23.47,24.75,33.46,49.08,3.84,9.81,4.94,17.76,2.87,21l-.07.1c-2.24,3.46-11.08,5.8-22.93,6a58,58,0,0,1-4.15,11.15c18.9.7,34.51-2.63,38.92-9.55C164.6,128.9,156.15,103.2,140.27,80Z"/><path class="cls-2" d="M154.14,105q-1.41-3.3-3.09-6.7a152.27,152.27,0,0,1-5.78,15.36c2.6,7.88,3.16,14.1,1.38,16.84l-.07.1a6.48,6.48,0,0,1-1.84,1.75C149.19,130.07,157.72,126,154.14,105Z"/><path class="cls-3" d="M141.63,66.48l.09.09c2.86,3.17,2.72,12.86-.45,25-12.26,32.2-18.55,36-32.74,50-9.67,7.74-18.39,11.75-22.43,10.44l-.12,0c-2.71-.88-5.71-4.94-8.39-11.12a137.25,137.25,0,0,1-13.66-4.59c4.33,15.46,10.82,26.92,17.77,29.11,10.41,3.48,32.38-10.7,50.49-31.39,22.93-27.07,28.65-67.41,19.94-76.83-5.61-6.07-21.67-7-40.46-3.21A151,151,0,0,1,125,63.46C133.29,63,139.45,64.05,141.63,66.48Z"/><path class="cls-4" d="M152.62,101.6l-.09-.2,0,.1Z"/><path class="cls-5" d="M154,104.74l0-.11,0,.09Z"/><path class="cls-6" d="M154,104.63c-.35-.82-.72-1.64-1.09-2.46.22.48.42,1,.63,1.43Z"/><path class="cls-7" d="M154.15,105.06c5.13,12.11,7.29,22.92,5.64,29.71l.1-.08c1.67-6.74-.61-17.58-5.75-29.64Z"/><path class="cls-8" d="M151.05,98.33c.51,1,1,2.05,1.47,3.07C152,100.38,151.56,99.36,151.05,98.33Z"/><path class="cls-9" d="M154,104.72l0-.09-.46-1C153.67,104,153.84,104.35,154,104.72Z"/><path class="cls-10" d="M154,104.72l0-.09-.46-1C153.67,104,153.84,104.35,154,104.72Z"/><path class="cls-11" d="M146.15,131.19a4.38,4.38,0,0,0,.44-.56A4.69,4.69,0,0,1,146.15,131.19Z"/><path class="cls-12" d="M146.15,131.19a4.38,4.38,0,0,0,.44-.56A4.69,4.69,0,0,1,146.15,131.19Z"/><path class="cls-13" d="M154.15,105.06c3.56,20.9-5,25-9.4,27.32l0,0c-3.83,2.61-12.05,4.26-22.42,4.31-14.47-1.48-23.76-3.24-31-5.55a30.73,30.73,0,0,0,.61,4.64c.13.6.28,1.19.43,1.77,28.41,7.64,59.21,4,67.35-2.75C161.43,128,159.28,117.17,154.15,105.06Z"/><path class="cls-14" d="M145.63,131.71l.31-.28Z"/><path class="cls-15" d="M145.63,131.71l.31-.28Z"/><path class="cls-16" d="M152.52,101.4c-.47-1-1-2-1.47-3.07q.79,1.59,1.52,3.17Z"/><path class="cls-17" d="M152.52,101.4c-.47-1-1-2-1.47-3.07q.79,1.59,1.52,3.17Z"/><path class="cls-18" d="M154.14,105a0,0,0,0,1,0,0l-.13-.29v0Z"/><path class="cls-19" d="M152.87,102.16l-.25-.56.13.29Z"/><path class="cls-20" d="M144.8,132.35a8.06,8.06,0,0,0,.83-.64A8.5,8.5,0,0,1,144.8,132.35Z"/><path class="cls-21" d="M145.93,131.42l.22-.23Z"/><path class="cls-22" d="M152.75,101.9l-.13-.29,0-.1Z"/><path class="cls-23" d="M152.75,101.9l-.13-.29,0-.1Z"/><path class="cls-24" d="M154,104.76v0Z"/><path class="cls-25" d="M154,104.76v0Z"/><path class="cls-26" d="M153.5,103.59c-.21-.47-.42-.95-.63-1.43l-.12-.27C153,102.47,153.25,103,153.5,103.59Z"/><path class="cls-27" d="M153.5,103.59c-.21-.47-.42-.95-.63-1.43l-.12-.27C153,102.47,153.25,103,153.5,103.59Z"/><path class="cls-28" d="M154.15,105.06v0l-.12-.28Z"/><path class="cls-29" d="M154.15,105.06v0l-.12-.28Z"/><path class="cls-30" d="M154.15,105.06l-.13-.3v0c-.16-.37-.33-.75-.5-1.13-.25-.56-.49-1.12-.75-1.69l-.18-.4q-.73-1.57-1.52-3.17a152.27,152.27,0,0,1-5.78,15.36c2.6,7.88,3.16,14.1,1.38,16.84l-.07.1a4.38,4.38,0,0,1-.44.56l-.22.23-.31.28a8.06,8.06,0,0,1-.83.64l0,0C149.19,130.07,157.71,126,154.15,105.06Z"/><path class="cls-31" d="M154.15,105.06l-.13-.3v0c-.16-.37-.33-.75-.5-1.13-.25-.56-.49-1.12-.75-1.69l-.18-.4q-.73-1.57-1.52-3.17a152.27,152.27,0,0,1-5.78,15.36c2.6,7.88,3.16,14.1,1.38,16.84l-.07.1a4.38,4.38,0,0,1-.44.56l-.22.23-.31.28a8.06,8.06,0,0,1-.83.64l0,0C149.19,130.07,157.71,126,154.15,105.06Z"/><path class="cls-32" d="M152.76,101.92v0l-.18-.4,0-.07c-.48-1-1-2.06-1.49-3.1a152.27,152.27,0,0,1-5.78,15.36c2.6,7.88,3.16,14.1,1.38,16.84l-.07.1a4.38,4.38,0,0,1-.44.56l-.21.22-.27.25,0,0a8.73,8.73,0,0,1-.82.63h0c-.2.14-.43.27-.66.41l-.17.1-.7.36-.24.12-.76.34-.27.1-.85.33h0c-.57.21-1.19.39-1.84.57l-.6.17L138,135l-.83.2-.63.13-1,.2-.54.1-1.36.21-.3,0a76.76,76.76,0,0,1-8.09.68h0l-2.25,0q2.16-2.54,4.26-5.23c14.59-19.19,22.12-44.51,23.35-61.38,1.83.54,3.61,1.13,5.3,1.8.1-6.62-1.08-11.83-3.75-14.74-4-4.52-13.72-6.16-26-5.24l-.37,0-2.16.19-.61.06-2.16.25-.49.06-2.62.37-.75.12-1.89.31-1.1.2-1.6.3-.72.14h0a153.1,153.1,0,0,0-20.52,5.67c-.75.21-1.5.42-2.26.67-21.71,7-41,18.62-49.16,29l-.06.08a20.87,20.87,0,0,0-3.39,5.91l0,.06a12.12,12.12,0,0,0-.37,1.34v.07a9.71,9.71,0,0,0-.21,1.56c-.37,6.06,5.41,14.14,14.8,22.2a24.88,24.88,0,0,1-.31-3.82,147.6,147.6,0,0,0,30,16.84,102.38,102.38,0,0,0,12.23,4.08v0l1.62.42.59.15-2.21-.57a30.71,30.71,0,0,0,3.06,7.25c2.18.57,4.36,1.06,6.53,1.48-7,4.56-12.83,6.72-15.93,5.71l-.12,0c-2.71-.88-5.71-4.94-8.39-11.12-4.11-1.15-8-2.45-11.73-3.86L64,136.37c4.28,15.23,10.68,26.54,17.53,28.87,6.56,1.94,18.62-5.31,31.09-17.45,22,2.15,41.51-2.47,45.84-9.56a12.21,12.21,0,0,0,1.36-3.47c-.27.23-.58.45-.9.67.33-.22.63-.44.9-.67h0l.1-.08C161.71,127.37,158.87,115.22,152.76,101.92ZM155.93,137c.39-.18.77-.36,1.13-.54a28.26,28.26,0,0,1-3,1.28l1.13-.45Zm-4.37,1.59.57-.18,1.27-.42q-1.74.61-3.78,1.14Q150.63,138.92,151.56,138.64Zm-2.52.68.32-.08c-.71.18-1.45.35-2.2.51l.16,0Zm-2.32.53c-1.67.35-3.45.65-5.32.91l.34,0C143.49,140.47,145.16,140.18,146.73,139.85Zm-8,1.26q1.34-.15,2.63-.33-1.31.18-2.68.34Zm-.1,0c-2,.21-4,.38-6.13.5C134.58,141.5,136.63,141.34,138.59,141.12ZM65.6,118c-6-4.39-10.54-8.79-13.22-12.52-.19-.27-.38-.53-.55-.8l-.13-.21a17,17,0,0,1-1.18-2.13c-.07-.15-.14-.3-.2-.44s-.11-.29-.16-.44S50,101.11,50,101s-.07-.25-.1-.38-.08-.35-.1-.52,0-.2,0-.29a4.72,4.72,0,0,1,0-.76v-.13a4.71,4.71,0,0,1,.09-.66c0-.07,0-.14,0-.21s.09-.34.14-.5l.08-.23c.09-.23.18-.47.3-.71l.1-.2c.09-.18.19-.37.3-.56l.2-.34.29-.45.25-.37.39-.53.53-.67.28-.34.47-.53.24-.26c.61-.66,1.29-1.34,2-2l.08-.08.83-.74h0q.88-.77,1.87-1.55h0a74.52,74.52,0,0,1,6.3-4.46c26.58-12.66,43.19-16.33,56.06-19.62,1.51-.17,3-.29,4.36-.37h0a52.69,52.69,0,0,1,8.31.11h0l1.15.14h0a23.17,23.17,0,0,1,3,.61h0l.6.19.37.12.47.18.4.17.38.18.4.21.31.18.39.27.22.16a4.79,4.79,0,0,1,.5.47l.09.09a4.59,4.59,0,0,1,.53.72h0a7.07,7.07,0,0,1,.45.88c1.79,4.19,1.32,12.86-1.43,23.34-10.41,27.34-16.52,34.19-26.82,44.22C87.16,132.27,81.39,127.21,65.6,118Zm43.67,22.81c-3.55-.44-7.14-1-10.73-1.8q1.56.33,3.12.62l.5.09q3.56.65,7.1,1.08Zm-14.49-2.65q1.68.41,3.36.78l.26.05Q96.6,138.57,94.79,138.12Zm23.81,3.48h0q3.57.19,7,.19h.09q3.37,0,6.55-.17A129.13,129.13,0,0,1,118.59,141.61Zm38.76-5.25.3-.16.7-.41.14-.09Q158,136,157.35,136.35Z"/><path class="cls-33" d="M151.05,98.33a152.27,152.27,0,0,1-5.78,15.36c2.6,7.88,3.16,14.1,1.38,16.84l-.07.1c-2.32,3.58-11.72,6-24.22,6C95.88,133.94,86.71,130.28,76,124.1c-2.51-1.45-5.12-3-8-4.76L65.6,118a69.43,69.43,0,0,1-11.55-10.39h0c-2.89-3.4-4.46-6.4-4.34-8.57v-.13c.15-2.84,3.29-6.79,8.56-11a137.43,137.43,0,0,1,.91-14.39C45.38,81.69,36,90.94,35.67,98.21c-.54,9,12.39,22.4,30.66,33.63l0,0q1.4.86,2.84,1.7l.3.17q1.48.86,3,1.7l.12.07q1.38.76,2.78,1.49l.65.34c1,.51,2,1,3,1.51l.39.18h0c32,14.91,72.67,9.12,79-.8C163,131.33,159.56,115.49,151.05,98.33Z"/><path class="cls-34" d="M86.09,152l-.12,0c-4.07-1.32-8.79-9.78-12.09-21.84-5.48-34-1.92-40.43,3.36-59.67,4.51-11.54,10-19.37,14.2-20.26l.12,0c2.79-.6,7.42,1.42,12.82,5.43a139,139,0,0,1,14.13-2.85C107.05,41.49,95.69,34.8,88.58,36.38c-10.75,2.2-22.69,25.47-28,52.44-6.32,34.9,9.17,72.94,21.15,76.51,7.93,2.37,22.26-4.79,36.64-17.45a151.53,151.53,0,0,1-16.33-1.6C95.06,150.82,89.2,153,86.09,152Z"/><path class="cls-35" d="M88.79,36.35C79.52,38.58,69.91,61.61,66.1,88.52,61.84,122,75.58,159,85.5,165.82c8.22-.15,20.53-7.12,32.83-17.95a151.53,151.53,0,0,1-16.33-1.6c-6.93,4.55-12.8,6.7-15.9,5.69l-.12,0c-4.07-1.32-8.79-9.78-12.09-21.84-5.48-34-1.92-40.43,3.36-59.67,4.51-11.54,10-19.37,14.2-20.26l.12,0c2.79-.6,7.42,1.42,12.82,5.43,4.13-1.05,8.18-1.89,12.09-2.52l1.92-.44C107.08,41.55,95.89,34.95,88.79,36.35Z"/><path class="cls-3" d="M112.66,152.59c1.88-1.48,3.78-3,5.67-4.71a151.53,151.53,0,0,1-16.33-1.6c-6.93,4.55-12.8,6.7-15.9,5.69l-.12,0a6.5,6.5,0,0,1-2.17-1.32C87.19,154.29,93.37,161.46,112.66,152.59Z"/><path class="cls-1" d="M118.41,52.6l-.05-.05c-4.8-4.3-12.64-6.24-20.82-4.5A28.5,28.5,0,0,0,91,50.31c.16-.05.33-.12.49-.15l.12,0c2.79-.6,7.42,1.42,12.82,5.43,4.13-1.05,8.18-1.89,12.09-2.52Z"/></g></svg>