<svg xmlns="http://www.w3.org/2000/svg" xmlns:xlink="http://www.w3.org/1999/xlink" viewBox="0 0 200 200"><defs><style>.cls-1{fill:url(#linear-gradient);}.cls-2{fill:url(#linear-gradient-2);}.cls-3{fill:url(#linear-gradient-3);}.cls-4{fill:url(#linear-gradient-4);}.cls-5{fill:url(#linear-gradient-5);}.cls-6{fill:url(#linear-gradient-6);}.cls-7{fill:url(#linear-gradient-7);}.cls-8{fill:url(#linear-gradient-8);}.cls-9{fill:url(#linear-gradient-9);}.cls-10{fill:url(#linear-gradient-10);}.cls-11,.cls-14{fill:none;}.cls-12{isolation:isolate;}.cls-13{fill:#95d650;}.cls-14{stroke:#f9f9f9;stroke-miterlimit:10;stroke-width:1.6px;}.cls-15{fill:#ffec00;}.cls-16{opacity:0.8;mix-blend-mode:screen;}.cls-17{clip-path:url(#clip-path);}.cls-18{mix-blend-mode:multiply;}.cls-19{clip-path:url(#clip-path-2);}.cls-20{clip-path:url(#clip-path-3);}.cls-21{mask:url(#mask);}.cls-22{fill:url(#linear-gradient-11);}.cls-23{clip-path:url(#clip-path-4);}.cls-24{clip-path:url(#clip-path-5);}.cls-25{mask:url(#mask-2);}.cls-26{fill:url(#linear-gradient-12);}.cls-27{clip-path:url(#clip-path-6);}.cls-28{clip-path:url(#clip-path-7);}.cls-29{mask:url(#mask-3);}.cls-30{fill:url(#linear-gradient-13);}.cls-31{clip-path:url(#clip-path-8);}.cls-32{clip-path:url(#clip-path-9);}.cls-33{mask:url(#mask-4);}.cls-34{fill:url(#linear-gradient-14);}.cls-35{clip-path:url(#clip-path-10);}.cls-36{clip-path:url(#clip-path-11);}.cls-37{mask:url(#mask-5);}.cls-38{fill:url(#linear-gradient-15);}.cls-39{clip-path:url(#clip-path-12);}.cls-40{clip-path:url(#clip-path-13);}.cls-41{mask:url(#mask-6);}.cls-42{fill:url(#linear-gradient-16);}.cls-43{clip-path:url(#clip-path-14);}.cls-44{clip-path:url(#clip-path-15);}.cls-45{mask:url(#mask-7);}.cls-46{fill:url(#linear-gradient-17);}.cls-47{clip-path:url(#clip-path-16);}.cls-48{clip-path:url(#clip-path-17);}.cls-49{mask:url(#mask-8);}.cls-50{fill:url(#linear-gradient-18);}.cls-51{clip-path:url(#clip-path-18);}.cls-52{clip-path:url(#clip-path-19);}.cls-53{mask:url(#mask-9);}.cls-54{fill:url(#linear-gradient-19);}.cls-55{clip-path:url(#clip-path-20);}.cls-56{clip-path:url(#clip-path-21);}.cls-57{mask:url(#mask-10);}.cls-58{fill:url(#linear-gradient-20);}</style><linearGradient id="linear-gradient" x1="-110.47" y1="-1212.46" x2="-108.79" y2="-1212.46" gradientTransform="matrix(7.93, 0, 0, -7.93, 954.19, -9475.3)" gradientUnits="userSpaceOnUse"><stop offset="0" stop-color="#fff"/><stop offset="0.06" stop-color="#dadada"/><stop offset="0.16" stop-color="#a7a7a7"/><stop offset="0.26" stop-color="#7b7b7b"/><stop offset="0.37" stop-color="#555"/><stop offset="0.48" stop-color="#363636"/><stop offset="0.59" stop-color="#1e1e1e"/><stop offset="0.71" stop-color="#0d0d0d"/><stop offset="0.84" stop-color="#030303"/><stop offset="1"/></linearGradient><linearGradient id="linear-gradient-2" x1="-89.89" y1="-1127.71" x2="-88.21" y2="-1127.71" gradientTransform="matrix(15.53, 0, 0, -15.53, 1448.04, -17385)" xlink:href="#linear-gradient"/><linearGradient id="linear-gradient-3" x1="-88" y1="-1127.75" x2="-86.32" y2="-1127.75" gradientTransform="matrix(15.53, 0, 0, -15.53, 1491.45, -17382.24)" xlink:href="#linear-gradient"/><linearGradient id="linear-gradient-4" x1="-108.78" y1="-1212.56" x2="-107.1" y2="-1212.56" gradientTransform="matrix(7.93, 0, 0, -7.93, 974.87, -9473.78)" xlink:href="#linear-gradient"/><linearGradient id="linear-gradient-5" x1="-90.52" y1="-1136.99" x2="-88.84" y2="-1136.99" gradientTransform="matrix(13.82, 0, 0, -13.82, 1377.74, -15635.79)" xlink:href="#linear-gradient"/><linearGradient id="linear-gradient-6" x1="-84.84" y1="-1114.45" x2="-83.15" y2="-1114.45" gradientTransform="matrix(18.13, 0, 0, -18.13, 1670.01, -20109.33)" xlink:href="#linear-gradient"/><linearGradient id="linear-gradient-7" x1="-116.07" y1="-1230.57" x2="-114.38" y2="-1230.57" gradientTransform="matrix(7, 0, 0, -7, 894.21, -8552.87)" xlink:href="#linear-gradient"/><linearGradient id="linear-gradient-8" x1="-114.51" y1="-1230.57" x2="-112.82" y2="-1230.57" gradientTransform="matrix(7, 0, 0, -7, 910.64, -8554.11)" xlink:href="#linear-gradient"/><linearGradient id="linear-gradient-9" x1="-86.85" y1="-1114.42" x2="-85.16" y2="-1114.42" gradientTransform="matrix(18.13, 0, 0, -18.13, 1615.76, -20110.87)" xlink:href="#linear-gradient"/><linearGradient id="linear-gradient-10" x1="-92.72" y1="-1137.03" x2="-91.03" y2="-1137.03" gradientTransform="matrix(13.81, 0, 0, -13.81, 1333.8, -15633.02)" xlink:href="#linear-gradient"/><clipPath id="clip-path"><rect class="cls-11" x="41.01" y="42.16" width="121.37" height="115.44"/></clipPath><clipPath id="clip-path-2"><rect class="cls-11" x="77.86" y="127.8" width="13.35" height="29.8"/></clipPath><clipPath id="clip-path-3"><path class="cls-11" d="M83.69,157.6a41,41,0,0,1-5.83-12L90.79,127.8a42.27,42.27,0,0,1,.43,6,40.91,40.91,0,0,1-7.52,23.79"/></clipPath><mask id="mask" x="77.86" y="127.8" width="13.35" height="29.8" maskUnits="userSpaceOnUse"><rect class="cls-1" x="77.86" y="127.8" width="13.35" height="29.8"/></mask><linearGradient id="linear-gradient-11" x1="-110.47" y1="-1212.47" x2="-108.79" y2="-1212.47" gradientTransform="matrix(7.93, 0, 0, -7.93, 954.2, -9475.3)" gradientUnits="userSpaceOnUse"><stop offset="0" stop-color="#231f20"/><stop offset="0.09" stop-color="#231f20"/><stop offset="1" stop-color="#231f20"/></linearGradient><clipPath id="clip-path-4"><rect class="cls-11" x="52.13" y="118.72" width="26.14" height="17.79"/></clipPath><clipPath id="clip-path-5"><path class="cls-11" d="M64.32,136.51a41.27,41.27,0,0,1-12.19-1.85,41,41,0,0,1,20.3-14.5,42,42,0,0,1,5.84-1.44L65.36,136.49l-1,0"/></clipPath><mask id="mask-2" x="52.13" y="118.72" width="26.14" height="17.79" maskUnits="userSpaceOnUse"><rect class="cls-2" x="52.13" y="118.72" width="26.14" height="17.79"/></mask><linearGradient id="linear-gradient-12" x1="-89.89" y1="-1127.71" x2="-88.21" y2="-1127.71" gradientTransform="matrix(15.53, 0, 0, -15.53, 1448.04, -17385)" xlink:href="#linear-gradient-11"/><clipPath id="clip-path-6"><rect class="cls-11" x="125.12" y="118.72" width="26.14" height="17.79"/></clipPath><clipPath id="clip-path-7"><path class="cls-11" d="M139.08,136.51l-1,0-12.92-17.77a41.91,41.91,0,0,1,5.84,1.44,41,41,0,0,1,20.3,14.5,41.23,41.23,0,0,1-12.18,1.85"/></clipPath><mask id="mask-3" x="125.12" y="118.72" width="26.14" height="17.79" maskUnits="userSpaceOnUse"><rect class="cls-3" x="125.12" y="118.72" width="26.14" height="17.79"/></mask><linearGradient id="linear-gradient-13" x1="-88" y1="-1127.75" x2="-86.32" y2="-1127.75" gradientTransform="matrix(15.53, 0, 0, -15.53, 1491.45, -17382.24)" xlink:href="#linear-gradient-11"/><clipPath id="clip-path-8"><rect class="cls-11" x="112.18" y="127.8" width="13.35" height="29.8"/></clipPath><clipPath id="clip-path-9"><path class="cls-11" d="M119.7,157.6a40.92,40.92,0,0,1-7.52-23.79,41.57,41.57,0,0,1,.43-6l12.92,17.79a40.93,40.93,0,0,1-5.83,12"/></clipPath><mask id="mask-4" x="112.18" y="127.8" width="13.35" height="29.8" maskUnits="userSpaceOnUse"><rect class="cls-4" x="112.18" y="127.8" width="13.35" height="29.8"/></mask><linearGradient id="linear-gradient-14" x1="-108.78" y1="-1212.56" x2="-107.1" y2="-1212.56" gradientTransform="matrix(7.93, 0, 0, -7.93, 974.87, -9473.78)" xlink:href="#linear-gradient-11"/><clipPath id="clip-path-10"><rect class="cls-11" x="127.08" y="63.32" width="23.26" height="19.94"/></clipPath><clipPath id="clip-path-11"><path class="cls-11" d="M127.08,83.26a42,42,0,0,1,3.18-5.11,40.93,40.93,0,0,1,20.07-14.83A40.83,40.83,0,0,1,148,76.46Z"/></clipPath><mask id="mask-5" x="127.08" y="63.32" width="23.26" height="19.94" maskUnits="userSpaceOnUse"><rect class="cls-5" x="127.08" y="63.32" width="23.26" height="19.94"/></mask><linearGradient id="linear-gradient-15" x1="-90.52" y1="-1136.99" x2="-88.84" y2="-1136.99" gradientTransform="matrix(13.82, 0, 0, -13.82, 1377.73, -15635.78)" xlink:href="#linear-gradient-11"/><clipPath id="clip-path-12"><rect class="cls-11" x="131.86" y="91.17" width="30.52" height="11.09"/></clipPath><clipPath id="clip-path-13"><path class="cls-11" d="M150.21,102.26A41.74,41.74,0,0,1,131.86,98l20.91-6.79a40.91,40.91,0,0,1,9.61,9.24,41.4,41.4,0,0,1-12.18,1.85"/></clipPath><mask id="mask-6" x="131.86" y="91.17" width="30.52" height="11.09" maskUnits="userSpaceOnUse"><rect class="cls-6" x="131.86" y="91.17" width="30.52" height="11.09"/></mask><linearGradient id="linear-gradient-16" x1="-84.84" y1="-1114.45" x2="-83.15" y2="-1114.45" gradientTransform="matrix(18.13, 0, 0, -18.13, 1670.01, -20109.33)" xlink:href="#linear-gradient-11"/><clipPath id="clip-path-14"><rect class="cls-11" x="82.19" y="42.16" width="11.78" height="28.28"/></clipPath><clipPath id="clip-path-15"><path class="cls-11" d="M94,70.43a42.17,42.17,0,0,1-3.88-4.6,40.94,40.94,0,0,1-7.9-23.68A41.15,41.15,0,0,1,94,48.45Z"/></clipPath><mask id="mask-7" x="82.19" y="42.16" width="11.78" height="28.28" maskUnits="userSpaceOnUse"><rect class="cls-7" x="82.19" y="42.16" width="11.78" height="28.28"/></mask><linearGradient id="linear-gradient-17" x1="-116.07" y1="-1230.57" x2="-114.38" y2="-1230.57" gradientTransform="matrix(7, 0, 0, -7, 894.21, -8552.87)" xlink:href="#linear-gradient-11"/><clipPath id="clip-path-16"><rect class="cls-11" x="109.43" y="42.16" width="11.78" height="28.28"/></clipPath><clipPath id="clip-path-17"><path class="cls-11" d="M109.43,48.45a41,41,0,0,1,11.78-6.3,40.89,40.89,0,0,1-7.9,23.67,42,42,0,0,1-3.87,4.6Z"/></clipPath><mask id="mask-8" x="109.43" y="42.16" width="11.78" height="28.28" maskUnits="userSpaceOnUse"><rect class="cls-8" x="109.43" y="42.16" width="11.78" height="28.28"/></mask><linearGradient id="linear-gradient-18" x1="-114.51" y1="-1230.57" x2="-112.82" y2="-1230.57" gradientTransform="matrix(7, 0, 0, -7, 910.64, -8554.1)" xlink:href="#linear-gradient-11"/><clipPath id="clip-path-18"><rect class="cls-11" x="41.01" y="91.17" width="30.52" height="11.09"/></clipPath><clipPath id="clip-path-19"><path class="cls-11" d="M53.19,102.26A41.44,41.44,0,0,1,41,100.41a41,41,0,0,1,9.62-9.24L71.53,98a41.74,41.74,0,0,1-18.35,4.29Z"/></clipPath><mask id="mask-9" x="41.01" y="91.17" width="30.52" height="11.09" maskUnits="userSpaceOnUse"><rect class="cls-9" x="41.01" y="91.17" width="30.52" height="11.09"/></mask><linearGradient id="linear-gradient-19" x1="-86.85" y1="-1114.42" x2="-85.16" y2="-1114.42" gradientTransform="matrix(18.13, 0, 0, -18.13, 1615.76, -20110.87)" xlink:href="#linear-gradient-11"/><clipPath id="clip-path-20"><rect class="cls-11" x="53.06" y="63.32" width="23.25" height="19.94"/></clipPath><clipPath id="clip-path-21"><path class="cls-11" d="M55.4,76.46a41,41,0,0,1-2.35-13.14A41,41,0,0,1,73.13,78.15a41.42,41.42,0,0,1,3.18,5.11Z"/></clipPath><mask id="mask-10" x="53.06" y="63.32" width="23.25" height="19.94" maskUnits="userSpaceOnUse"><rect class="cls-10" x="53.06" y="63.32" width="23.25" height="19.94"/></mask><linearGradient id="linear-gradient-20" x1="-92.72" y1="-1137.03" x2="-91.03" y2="-1137.03" gradientTransform="matrix(13.81, 0, 0, -13.81, 1333.8, -15633.02)" xlink:href="#linear-gradient-11"/></defs><title>c</title><g class="cls-12"><g id="step_3" data-name="step 3"><g id="Candidates"><g id="candidate_copy_3" data-name="candidate copy 3"><path class="cls-13" d="M68.35,107.58A48.79,48.79,0,0,0,88.22,95.26L49.58,82.7a49,49,0,0,0-19.76,21.35,49,49,0,0,0,38.53,3.52"/><path class="cls-13" d="M98.95,133.81a48.78,48.78,0,0,0-5.58-22.71L69.48,144a49.06,49.06,0,0,0,14.2,25.39,48.92,48.92,0,0,0,15.26-35.55"/><path class="cls-14" d="M98.95,133.81a48.78,48.78,0,0,0-5.58-22.71L69.48,144a49.06,49.06,0,0,0,14.2,25.39A48.92,48.92,0,0,0,98.95,133.81Z"/><path class="cls-15" d="M70,112.8a48.77,48.77,0,0,1,23.32-1.71L69.48,144a49.05,49.05,0,0,1-28.54-5.66A49,49,0,0,1,70,112.8"/><path class="cls-14" d="M70,112.8a48.77,48.77,0,0,1,23.32-1.71L69.48,144a49.05,49.05,0,0,1-28.54-5.66A49,49,0,0,1,70,112.8Z"/><path class="cls-13" d="M133.35,112.8A48.8,48.8,0,0,0,110,111.09L133.91,144a49,49,0,0,0,28.54-5.66,49,49,0,0,0-29.1-25.5"/><path class="cls-14" d="M133.35,112.8A48.8,48.8,0,0,0,110,111.09L133.91,144a49,49,0,0,0,28.54-5.66A49,49,0,0,0,133.35,112.8Z"/><path class="cls-15" d="M104.44,133.81A48.78,48.78,0,0,1,110,111.09L133.91,144a49,49,0,0,1-14.21,25.39,49,49,0,0,1-15.26-35.55"/><path class="cls-14" d="M104.44,133.81A48.78,48.78,0,0,1,110,111.09L133.91,144a49,49,0,0,1-14.21,25.39A49,49,0,0,1,104.44,133.81Z"/><path class="cls-13" d="M124,73.61a48.77,48.77,0,0,0-8.84,21.65L153.82,82.7a49,49,0,0,0,3.43-28.89A48.91,48.91,0,0,0,124,73.61"/><path class="cls-14" d="M124,73.61a48.77,48.77,0,0,0-8.84,21.65L153.82,82.7a49,49,0,0,0,3.43-28.89A48.91,48.91,0,0,0,124,73.61Z"/><path class="cls-15" d="M135,107.58a48.86,48.86,0,0,1-19.87-12.32L153.82,82.7a49,49,0,0,1,19.76,21.35A49,49,0,0,1,135,107.58"/><path class="cls-14" d="M135,107.58a48.86,48.86,0,0,1-19.87-12.32L153.82,82.7a49,49,0,0,1,19.76,21.35A49,49,0,0,1,135,107.58Z"/><path class="cls-13" d="M83.83,70.38A48.82,48.82,0,0,0,101.7,85.47V44.84A49.07,49.07,0,0,0,75.28,32.65a48.93,48.93,0,0,0,8.55,37.73"/><path class="cls-14" d="M83.83,70.38A48.82,48.82,0,0,0,101.7,85.47V44.84A49.07,49.07,0,0,0,75.28,32.65,48.93,48.93,0,0,0,83.83,70.38Z"/><path class="cls-15" d="M119.56,70.38A48.8,48.8,0,0,1,101.7,85.47V44.84a49,49,0,0,1,26.42-12.19,48.93,48.93,0,0,1-8.55,37.73"/><path class="cls-14" d="M119.56,70.38A48.8,48.8,0,0,1,101.7,85.47V44.84a49,49,0,0,1,26.42-12.19A48.93,48.93,0,0,1,119.56,70.38Z"/><path class="cls-15" d="M79.39,73.61a48.76,48.76,0,0,1,8.83,21.65L49.58,82.7a49.06,49.06,0,0,1-3.43-28.89A48.91,48.91,0,0,1,79.39,73.61"/><path class="cls-14" d="M79.39,73.61a48.76,48.76,0,0,1,8.83,21.65L49.58,82.7a49.06,49.06,0,0,1-3.43-28.89A48.91,48.91,0,0,1,79.39,73.61Z"/><g class="cls-16"><g class="cls-17"><g class="cls-18"><g class="cls-19"><g class="cls-20"><g class="cls-21"><rect class="cls-22" x="77.86" y="127.8" width="13.35" height="29.8"/></g></g></g></g><g class="cls-18"><g class="cls-23"><g class="cls-24"><g class="cls-25"><rect class="cls-26" x="52.13" y="118.72" width="26.14" height="17.79"/></g></g></g></g><g class="cls-18"><g class="cls-27"><g class="cls-28"><g class="cls-29"><rect class="cls-30" x="125.12" y="118.72" width="26.14" height="17.79"/></g></g></g></g><g class="cls-18"><g class="cls-31"><g class="cls-32"><g class="cls-33"><rect class="cls-34" x="112.18" y="127.8" width="13.35" height="29.8"/></g></g></g></g><g class="cls-18"><g class="cls-35"><g class="cls-36"><g class="cls-37"><rect class="cls-38" x="127.08" y="63.32" width="23.26" height="19.94"/></g></g></g></g><g class="cls-18"><g class="cls-39"><g class="cls-40"><g class="cls-41"><rect class="cls-42" x="131.86" y="91.17" width="30.52" height="11.09"/></g></g></g></g><g class="cls-18"><g class="cls-43"><g class="cls-44"><g class="cls-45"><rect class="cls-46" x="82.19" y="42.16" width="11.78" height="28.28"/></g></g></g></g><g class="cls-18"><g class="cls-47"><g class="cls-48"><g class="cls-49"><rect class="cls-50" x="109.43" y="42.16" width="11.78" height="28.28"/></g></g></g></g><g class="cls-18"><g class="cls-51"><g class="cls-52"><g class="cls-53"><rect class="cls-54" x="41.01" y="91.17" width="30.52" height="11.09"/></g></g></g></g><g class="cls-18"><g class="cls-55"><g class="cls-56"><g class="cls-57"><rect class="cls-58" x="53.06" y="63.32" width="23.25" height="19.94"/></g></g></g></g></g></g></g></g></g></g></svg>