<svg xmlns="http://www.w3.org/2000/svg" viewBox="0 0 200 200"><defs><style>.cls-1{fill:#d00;}.cls-1,.cls-2{fill-rule:evenodd;}.cls-2{fill:#ffce00;}</style></defs><title>d</title><g id="Layer_25" data-name="Layer 25"><path class="cls-1" d="M95.52,63.7a42.07,42.07,0,0,0-25.77,64.18q1.67-13.62,10.94-30.22,54.63,17.52,50.18-26A42,42,0,0,0,95.52,63.7Z"/><path class="cls-1" d="M70.82,144.37A52.27,52.27,0,0,1,128.4,58a194,194,0,0,0-6.9-21.79A68,68,0,1,0,89.72,168.09Q74.76,158.39,70.82,144.37Z"/><path class="cls-2" d="M132,40.57q29.35,85.51-47,67.1Q65.54,147.18,102.36,169A68,68,0,0,0,132,40.57Z"/></g></svg>